<?xml version="1.0" ?><!DOCTYPE svg  PUBLIC '-//W3C//DTD SVG 1.1//EN'  'http://www.w3.org/Graphics/SVG/1.1/DTD/svg11.dtd'><!-- Uploaded to: SVG Repo, www.svgrepo.com, Generator: SVG Repo Mixer Tools -->
<svg width="800px" height="800px" viewBox="0 0 32 32" style="fill-rule:evenodd;clip-rule:evenodd;stroke-linejoin:round;stroke-miterlimit:2;" version="1.1" xml:space="preserve" xmlns="http://www.w3.org/2000/svg" xmlns:serif="http://www.serif.com/" xmlns:xlink="http://www.w3.org/1999/xlink"><g id="Icon"/><path d="M30,23l0,-13.66c0,-0.552 -0.448,-1 -1,-1l-26,0c-0.552,0 -1,0.448 -1,1l-0,13.66c0,0.552 0.448,1 1,1c0.552,-0 1,-0.448 1,-1l0,-12.66c0,0 24,0 24,0c-0,0 0,12.66 0,12.66c0,0.552 0.448,1 1,1c0.552,-0 1,-0.448 1,-1Z"/><path d="M3,24l26,-0c0.552,-0 1,-0.448 1,-1c-0,-0.552 -0.448,-1 -1,-1l-26,0c-0.552,-0 -1,0.448 -1,1c-0,0.552 0.448,1 1,1Z"/><path d="M4.001,21.5l4.536,-0.005c0.276,-0 0.5,-0.224 0.5,-0.5c-0,-0.276 -0.225,-0.5 -0.501,-0.5l-4.537,0.005c-0.275,0 -0.499,0.225 -0.499,0.501c0,0.275 0.225,0.499 0.501,0.499Z"/><path d="M10.001,21.494l18,-0.02c0.275,-0 0.499,-0.225 0.499,-0.5c-0,-0.276 -0.225,-0.5 -0.501,-0.5l-18,0.02c-0.275,-0 -0.499,0.224 -0.499,0.5c0,0.276 0.225,0.5 0.501,0.5Z"/><circle cx="26" cy="15" r="0.667" style="fill:#060000;"/><path d="M26,13.833c-0.644,0 -1.167,0.523 -1.167,1.167c0,0.644 0.523,1.167 1.167,1.167c0.644,-0 1.167,-0.523 1.167,-1.167c-0,-0.644 -0.523,-1.167 -1.167,-1.167Zm0,1c0.092,0 0.167,0.075 0.167,0.167c-0,0.092 -0.075,0.167 -0.167,0.167c-0.092,-0 -0.167,-0.075 -0.167,-0.167c0,-0.092 0.075,-0.167 0.167,-0.167Z"/><circle cx="26" cy="18.333" r="0.667"/><path d="M26,17.167c-0.644,-0 -1.167,0.522 -1.167,1.166c0,0.644 0.523,1.167 1.167,1.167c0.644,-0 1.167,-0.523 1.167,-1.167c-0,-0.644 -0.523,-1.166 -1.167,-1.166Zm0,1c0.092,-0 0.167,0.074 0.167,0.166c-0,0.092 -0.075,0.167 -0.167,0.167c-0.092,-0 -0.167,-0.075 -0.167,-0.167c0,-0.092 0.075,-0.166 0.167,-0.166Z"/><path d="M10.053,24.776l-1,2c-0.124,0.247 -0.023,0.548 0.223,0.671c0.247,0.124 0.548,0.023 0.671,-0.223l1,-2c0.124,-0.247 0.023,-0.548 -0.223,-0.671c-0.247,-0.124 -0.548,-0.023 -0.671,0.223Z"/><path d="M23.631,26.837l-1,-2c-0.123,-0.247 -0.424,-0.347 -0.671,-0.224c-0.246,0.124 -0.347,0.424 -0.223,0.671l1,2c0.123,0.247 0.424,0.347 0.671,0.224c0.246,-0.124 0.347,-0.424 0.223,-0.671Z"/><path d="M18.53,25.292l0.684,1.879c0.095,0.259 0.382,0.393 0.641,0.299c0.259,-0.095 0.393,-0.382 0.299,-0.641l-0.684,-1.879c-0.095,-0.26 -0.382,-0.394 -0.641,-0.299c-0.259,0.094 -0.393,0.381 -0.299,0.641Z"/><path d="M13.214,24.95l-0.684,1.879c-0.094,0.259 0.04,0.546 0.299,0.641c0.259,0.094 0.546,-0.04 0.641,-0.299l0.684,-1.879c0.094,-0.26 -0.04,-0.547 -0.299,-0.641c-0.259,-0.095 -0.546,0.039 -0.641,0.299Z"/></svg>