<svg xmlns="http://www.w3.org/2000/svg" xmlns:xlink="http://www.w3.org/1999/xlink" version="1.1" x="0px" y="0px" viewBox="0 0 1024 1280" style="enable-background:new 0 0 1024 1024;" xml:space="preserve"><g><path d="M627.3,694l-71.7,41.4L627.3,694L627.3,694z M627.3,405.2l-71.7,41.4L627.3,405.2L627.3,405.2z M627.3,694l-71.7,41.4   L627.3,694L627.3,694z M627.3,405.2l-71.7,41.4L627.3,405.2L627.3,405.2z M627.3,694l-71.7,41.4L627.3,694L627.3,694z M627.3,405.2   l-71.7,41.4L627.3,405.2L627.3,405.2z M627.3,694l-71.7,41.4L627.3,694L627.3,694z M627.3,405.2l-71.7,41.4L627.3,405.2   L627.3,405.2z M627.3,694l-71.7,41.4L627.3,694L627.3,694z M627.3,405.2l-71.7,41.4L627.3,405.2L627.3,405.2z M627.3,694   l-71.7,41.4L627.3,694L627.3,694z M627.3,405.2l-71.7,41.4L627.3,405.2L627.3,405.2z M627.3,694l-71.7,41.4L627.3,694L627.3,694z    M627.3,405.2l-71.7,41.4L627.3,405.2L627.3,405.2z M627.3,694l-71.7,41.4L627.3,694L627.3,694z M627.3,405.2l-71.7,41.4   L627.3,405.2L627.3,405.2z M627.3,694l-71.7,41.4L627.3,694L627.3,694z M627.3,405.2l-71.7,41.4L627.3,405.2L627.3,405.2z    M627.3,694l-71.7,41.4L627.3,694L627.3,694z M627.3,405.2l-71.7,41.4L627.3,405.2L627.3,405.2z M627.3,694l-71.7,41.4L627.3,694   L627.3,694z M627.3,405.2l-71.7,41.4L627.3,405.2L627.3,405.2z M805.9,269.5l-245.8,12.3l159.6-92.2l-11.3-19.5l-10-17.3l-10-17.3   l-11.7-20.3l-20-34.7L644.9,60L218.1,306.5v159.3l245.7-12.3L218.1,595.3v159.3l245.7-12.3l-158.6,91.6l11.8,20.4l10,17.3l10,17.3   l11.7,20.3l10,17.3l10,17.3l11.4,19.7l425.8-245.9V558.3l-245.7,12.4l245.7-141.9V269.5z M765.9,405.7L468.4,577.5L396.6,619   l87.6-4.4h0l219.9-11.1h0l61.8-3.1v94.1L394.7,908.8l-34.9-60.4l195.8-113l71.8-41.4h-0.1l-87.6,4.4h0l-219.9,11l-61.8,3.1v-94.1   l297.5-171.7l71.8-41.4h0l-87.6,4.4h0l-219.9,11h0l-61.7,3.1v-94.1l372.2-214.9l0,0l20.5,35.6L665,175L468.4,288.6L396.7,330   l87.6-4.4h0l219.9-11h0l61.7-3.1V405.7z M627.3,405.2l-71.7,41.4L627.3,405.2L627.3,405.2z M627.3,694l-71.7,41.4L627.3,694   L627.3,694z M627.3,405.2l-71.7,41.4L627.3,405.2L627.3,405.2z M627.3,694l-71.7,41.4L627.3,694L627.3,694z M627.3,405.2   l-71.7,41.4L627.3,405.2L627.3,405.2z M627.3,694l-71.7,41.4L627.3,694L627.3,694z M627.3,405.2l-71.7,41.4L627.3,405.2   L627.3,405.2z M627.3,694l-71.7,41.4L627.3,694L627.3,694z M627.3,405.2l-71.7,41.4L627.3,405.2L627.3,405.2z M627.3,694   l-71.7,41.4L627.3,694L627.3,694z M627.3,405.2l-71.7,41.4L627.3,405.2L627.3,405.2z M627.3,694l-71.7,41.4L627.3,694L627.3,694z    M627.3,405.2l-71.7,41.4L627.3,405.2L627.3,405.2z M627.3,694l-71.7,41.4L627.3,694L627.3,694z M627.3,405.2l-71.7,41.4   L627.3,405.2L627.3,405.2z M627.3,694l-71.7,41.4L627.3,694L627.3,694z M627.3,405.2l-71.7,41.4L627.3,405.2L627.3,405.2z    M627.3,694l-71.7,41.4L627.3,694L627.3,694z M627.3,405.2l-71.7,41.4L627.3,405.2L627.3,405.2z M627.3,694l-71.7,41.4L627.3,694   L627.3,694z"/><path d="M748.9,388.5c0,12.6-10.3,22.9-22.9,22.9s-22.9-10.3-22.9-22.9s10.3-22.9,22.9-22.9S748.9,375.9,748.9,388.5z"/><path d="M687.8,423.8c0,12.6-10.3,22.9-22.9,22.9S642,436.4,642,423.8s10.3-22.9,22.9-22.9S687.8,411.2,687.8,423.8z"/><path d="M626.6,459.1c0,12.6-10.3,22.9-22.9,22.9s-22.9-10.3-22.9-22.9s10.3-22.9,22.9-22.9S626.6,446.5,626.6,459.1z"/><path d="M565.5,494.4c0,12.6-10.3,22.9-22.9,22.9s-22.9-10.3-22.9-22.9s10.3-22.9,22.9-22.9S565.5,481.8,565.5,494.4z"/><path d="M504.3,529.7c0,12.6-10.3,22.9-22.9,22.9s-22.9-10.3-22.9-22.9s10.3-22.9,22.9-22.9S504.3,517.1,504.3,529.7z"/><path d="M443.2,564.9c0,12.6-10.3,22.9-22.9,22.9s-22.9-10.3-22.9-22.9s10.3-22.9,22.9-22.9S443.2,552.3,443.2,564.9z"/><path d="M382.1,600.2c0,12.6-10.3,22.9-22.9,22.9s-22.9-10.3-22.9-22.9s10.3-22.9,22.9-22.9S382.1,587.6,382.1,600.2z"/><path d="M320.9,635.5c0,12.6-10.3,22.9-22.9,22.9s-22.9-10.3-22.9-22.9s10.3-22.9,22.9-22.9S320.9,622.9,320.9,635.5z"/><path d="M626.6,170.2c0,12.6-10.3,22.9-22.9,22.9s-22.9-10.3-22.9-22.9s10.3-22.9,22.9-22.9S626.6,157.6,626.6,170.2z"/><path d="M565.5,205.5c0,12.6-10.3,22.9-22.9,22.9s-22.9-10.3-22.9-22.9s10.3-22.9,22.9-22.9S565.5,192.9,565.5,205.5z"/><path d="M504.3,240.8c0,12.6-10.3,22.9-22.9,22.9s-22.9-10.3-22.9-22.9s10.3-22.9,22.9-22.9S504.3,228.2,504.3,240.8z"/><path d="M443.2,276.1c0,12.6-10.3,22.9-22.9,22.9s-22.9-10.3-22.9-22.9s10.3-22.9,22.9-22.9S443.2,263.5,443.2,276.1z"/><path d="M382.1,311.4c0,12.6-10.3,22.9-22.9,22.9s-22.9-10.3-22.9-22.9s10.3-22.9,22.9-22.9S382.1,298.8,382.1,311.4z"/><path d="M320.9,346.7c0,12.6-10.3,22.9-22.9,22.9s-22.9-10.3-22.9-22.9s10.3-22.9,22.9-22.9S320.9,334.1,320.9,346.7z"/><path d="M748.9,677.3c0,12.6-10.3,22.9-22.9,22.9s-22.9-10.3-22.9-22.9s10.3-22.9,22.9-22.9S748.9,664.7,748.9,677.3z"/><path d="M687.8,712.6c0,12.6-10.3,22.9-22.9,22.9S642,725.2,642,712.6s10.3-22.9,22.9-22.9S687.8,700,687.8,712.6z"/><path d="M626.6,747.9c0,12.6-10.3,22.9-22.9,22.9s-22.9-10.3-22.9-22.9s10.3-22.9,22.9-22.9S626.6,735.3,626.6,747.9z"/><path d="M565.5,783.2c0,12.6-10.3,22.9-22.9,22.9s-22.9-10.3-22.9-22.9s10.3-22.9,22.9-22.9S565.5,770.6,565.5,783.2z"/><path d="M504.3,818.5c0,12.6-10.3,22.9-22.9,22.9s-22.9-10.3-22.9-22.9s10.3-22.9,22.9-22.9S504.3,805.9,504.3,818.5z"/><path d="M443.2,853.8c0,12.6-10.3,22.9-22.9,22.9s-22.9-10.3-22.9-22.9s10.3-22.9,22.9-22.9S443.2,841.2,443.2,853.8z"/><polygon points="673.8,190.1 622.1,100.5 703.1,53.8 723.1,88.4 676.7,115.1 688.4,135.5 734.8,108.7 754.8,143.3  "/><polygon points="322.8,970.2 302.8,935.6 348.7,909.1 337,888.8 291.1,915.3 271.1,880.7 351.6,834.2 403.3,923.7  "/><rect x="338.3" y="236.5" transform="matrix(0.5002 0.8659 -0.8659 0.5002 504.0439 -122.633)" width="40" height="277.5"/><rect x="645.8" y="221.1" transform="matrix(0.5002 0.8659 -0.8659 0.5002 644.4208 -396.6026)" width="40" height="277.5"/><rect x="338.3" y="525.4" transform="matrix(0.4999 0.8661 -0.8661 0.4999 754.3625 21.8626)" width="40" height="277.5"/><rect x="645.8" y="509.9" transform="matrix(0.5002 0.8659 -0.8659 0.5002 894.5027 -252.2479)" width="40" height="277.5"/></g><text x="0" y="1039" fill="#000000" font-size="5px" font-weight="bold" font-family="'Helvetica Neue', Helvetica, Arial-Unicode, Arial, Sans-serif">Created by IconPai</text><text x="0" y="1044" fill="#000000" font-size="5px" font-weight="bold" font-family="'Helvetica Neue', Helvetica, Arial-Unicode, Arial, Sans-serif">from the Noun Project</text></svg>